<svg width="359" height="283" viewBox="0 0 359 283" fill="none" xmlns="http://www.w3.org/2000/svg">
<path d="M300.536 75.3531H68.8343C66.2259 75.3531 64.1113 77.4664 64.1113 80.0733V219.454C64.1113 222.06 66.2259 224.174 68.8343 224.174H300.536C303.145 224.174 305.259 222.06 305.259 219.454V80.0733C305.259 77.4664 303.145 75.3531 300.536 75.3531Z" fill="#CCCCCC"/>
<path d="M300.541 99.5798H69.1495V218.824H300.541V99.5798Z" fill="white"/>
<path d="M197.281 163.694H217.977C218.56 163.693 219.138 163.808 219.678 164.031C220.217 164.253 220.707 164.58 221.12 164.992C221.533 165.405 221.86 165.894 222.083 166.433C222.307 166.972 222.422 167.549 222.422 168.132H197.281V163.694Z" fill="#D1D3D4"/>
<path d="M300.541 87.309H94.0211V96.7493H300.541V87.309Z" fill="white"/>
<path d="M73.4661 90.1104V88.0052L69.4646 92.0292L73.4661 96.107V93.8982H77.4676V90.1104H73.4661Z" fill="white"/>
<path d="M86.6027 94.0018V96.107L90.6042 92.0872L86.6027 88.0052V90.214H82.6012V94.0018H86.6027Z" fill="white"/>
<path d="M278.186 84.176C279.723 84.176 280.968 82.931 280.968 81.3953C280.968 79.8595 279.723 78.6146 278.186 78.6146C276.649 78.6146 275.404 79.8595 275.404 81.3953C275.404 82.931 276.649 84.176 278.186 84.176Z" fill="white"/>
<path d="M287.682 84.4786C289.218 84.4786 290.464 83.2336 290.464 81.6978C290.464 80.1621 289.218 78.9171 287.682 78.9171C286.145 78.9171 284.899 80.1621 284.899 81.6978C284.899 83.2336 286.145 84.4786 287.682 84.4786Z" fill="white"/>
<path d="M297.173 84.4786C298.71 84.4786 299.956 83.2336 299.956 81.6978C299.956 80.1621 298.71 78.9171 297.173 78.9171C295.637 78.9171 294.391 80.1621 294.391 81.6978C294.391 83.2336 295.637 84.4786 297.173 84.4786Z" fill="white"/>
<path d="M111.814 102.555H76.3937C75.6402 102.555 75.0294 103.165 75.0294 103.917C75.0294 104.669 75.6402 105.278 76.3937 105.278H111.814C112.568 105.278 113.179 104.669 113.179 103.917C113.179 103.165 112.568 102.555 111.814 102.555Z" fill="#BCBEC0"/>
<path d="M97.9521 107.881H76.3937C75.6402 107.881 75.0294 108.49 75.0294 109.242C75.0294 109.994 75.6402 110.603 76.3937 110.603H97.9521C98.7055 110.603 99.3163 109.994 99.3163 109.242C99.3163 108.49 98.7055 107.881 97.9521 107.881Z" fill="#BCBEC0"/>
<path d="M75.0294 113.869V201.074H162.399V131.83C162.399 131.83 161.947 128.44 159.007 126.479C156.428 124.76 153.04 124.992 150.519 126.794C149.745 127.315 149.092 127.995 148.602 128.788C148.112 129.581 147.797 130.47 147.679 131.394L75.0294 113.869Z" fill="#BCBEC0"/>
<path opacity="0.2" d="M151.141 134.424C151.141 134.424 149.897 126.347 156.266 125.406C156.266 125.406 149.632 124.039 147.679 131.394L75.0294 113.869L151.141 134.424Z" fill="black"/>
<path d="M156.266 125.406L75.0294 113.869L147.679 131.394C147.679 131.394 149.03 124.548 156.266 125.406Z" fill="#D1D3D4"/>
<path d="M81.3904 145.924H51.3977C51.0404 145.924 50.7508 146.213 50.7508 146.57V166.761C50.7508 167.118 51.0404 167.407 51.3977 167.407H81.3904C81.7476 167.407 82.0372 167.118 82.0372 166.761V146.57C82.0372 146.213 81.7476 145.924 81.3904 145.924Z" fill="#D1D3D4"/>
<path d="M66.3961 159.471L51.945 147.503L52.2104 147.184L66.3961 158.932L80.4947 147.184L80.7601 147.503L66.3961 159.471Z" fill="#BCBEC0"/>
<path d="M62.7902 156.163L51.9468 165.597L52.2191 165.909L63.0625 156.476L62.7902 156.163Z" fill="#BCBEC0"/>
<path d="M69.9893 156.161L69.7161 156.473L80.4957 165.904L80.7688 165.592L69.9893 156.161Z" fill="#BCBEC0"/>
<path d="M46.7493 150.201H26.8039C26.4467 150.201 26.157 150.49 26.157 150.847V164.137C26.157 164.494 26.4467 164.784 26.8039 164.784H46.7493C47.1065 164.784 47.3962 164.494 47.3962 164.137V150.847C47.3962 150.49 47.1065 150.201 46.7493 150.201Z" fill="#D1D3D4"/>
<path d="M36.7766 159.484L26.9242 151.324L27.1895 151.005L36.7766 158.945L46.3056 151.009L46.571 151.324L36.7766 159.484Z" fill="#BCBEC0"/>
<path d="M34.2853 157.1L26.9229 163.505L27.1951 163.818L34.5575 157.413L34.2853 157.1Z" fill="#BCBEC0"/>
<path d="M39.2617 157.101L38.9886 157.413L46.305 163.814L46.5781 163.503L39.2617 157.101Z" fill="#BCBEC0"/>
<path d="M91.9021 159.807C93.5098 159.807 94.813 158.504 94.813 156.898C94.813 155.291 93.5098 153.988 91.9021 153.988C90.2944 153.988 88.9911 155.291 88.9911 156.898C88.9911 158.504 90.2944 159.807 91.9021 159.807Z" fill="white"/>
<path d="M102.107 159.807C103.715 159.807 105.018 158.504 105.018 156.898C105.018 155.291 103.715 153.988 102.107 153.988C100.499 153.988 99.196 155.291 99.196 156.898C99.196 158.504 100.499 159.807 102.107 159.807Z" fill="white"/>
<path d="M112.735 159.807C114.343 159.807 115.646 158.504 115.646 156.898C115.646 155.291 114.343 153.988 112.735 153.988C111.127 153.988 109.824 155.291 109.824 156.898C109.824 158.504 111.127 159.807 112.735 159.807Z" fill="white"/>
<path opacity="0.24" d="M64.1113 174.498L83.4513 168.621C83.6547 168.56 83.8299 168.428 83.9459 168.25C84.062 168.072 84.1115 167.859 84.0857 167.648L82.0414 150.221V166.761C82.0414 166.761 81.9958 167.403 81.3945 167.403H64.1113V174.498Z" fill="#3F3D56"/>
<path d="M168.885 201.074V168.112C168.89 166.937 169.361 165.813 170.194 164.985C171.027 164.157 172.155 163.693 173.33 163.694H200.196C200.779 163.693 201.357 163.808 201.897 164.031C202.436 164.253 202.926 164.58 203.339 164.992C203.752 165.405 204.079 165.894 204.303 166.433C204.526 166.972 204.641 167.549 204.641 168.132H294.744V201.074H168.885Z" fill="#BCBEC0"/>
<path d="M168.885 113.865V159.807L225.524 155.157V109.244L168.885 113.865Z" fill="#D1D3D4"/>
<path d="M230.5 159.807H169.842L225.524 155.157V113.865H230.5V159.807Z" fill="#BCBEC0"/>
<path d="M294.744 113.869H235.003V159.811H294.744V113.869Z" fill="#D1D3D4"/>
<path d="M243.354 126.919C245.972 126.919 248.094 124.798 248.094 122.182C248.094 119.566 245.972 117.445 243.354 117.445C240.737 117.445 238.615 119.566 238.615 122.182C238.615 124.798 240.737 126.919 243.354 126.919Z" fill="white"/>
<path d="M245.307 122.833H241.749C241.625 122.832 241.504 122.87 241.402 122.941C241.3 123.012 241.223 123.112 241.18 123.229C241.138 123.346 241.133 123.473 241.166 123.593C241.199 123.712 241.268 123.819 241.364 123.898L242.301 124.681C242.644 124.968 243.077 125.126 243.524 125.126C243.972 125.126 244.405 124.968 244.747 124.681L245.685 123.898C245.78 123.819 245.849 123.713 245.882 123.595C245.915 123.476 245.911 123.349 245.87 123.233C245.828 123.117 245.752 123.016 245.652 122.944C245.551 122.872 245.431 122.834 245.307 122.833V122.833Z" fill="#D1D3D4"/>
<path d="M289.199 117.445H252.85C251.503 117.445 250.412 118.536 250.412 119.882V124.482C250.412 125.828 251.503 126.919 252.85 126.919H289.199C290.546 126.919 291.638 125.828 291.638 124.482V119.882C291.638 118.536 290.546 117.445 289.199 117.445Z" fill="white"/>
<path d="M277.402 130.603H241.053C239.706 130.603 238.615 131.694 238.615 133.04V137.64C238.615 138.986 239.706 140.077 241.053 140.077H277.402C278.749 140.077 279.841 138.986 279.841 137.64V133.04C279.841 131.694 278.749 130.603 277.402 130.603Z" fill="white"/>
<path d="M275.362 134.527L284.875 140.072V154.162C284.875 154.845 285.146 155.5 285.629 155.982C286.112 156.465 286.767 156.736 287.45 156.736H322.982C323.594 156.736 324.18 156.493 324.613 156.061C325.045 155.629 325.288 155.043 325.288 154.432V136.819C325.288 136.208 325.045 135.622 324.613 135.19C324.18 134.758 323.594 134.515 322.982 134.515L275.362 134.527Z" fill="#BCBEC0"/>
<path d="M320.523 138.995H289.606C289.006 138.995 288.519 139.48 288.519 140.079C288.519 140.677 289.006 141.162 289.606 141.162H320.523C321.123 141.162 321.61 140.677 321.61 140.079C321.61 139.48 321.123 138.995 320.523 138.995Z" fill="white"/>
<path d="M320.722 144.212H289.805C289.205 144.212 288.719 144.698 288.719 145.296C288.719 145.895 289.205 146.38 289.805 146.38H320.722C321.322 146.38 321.809 145.895 321.809 145.296C321.809 144.698 321.322 144.212 320.722 144.212Z" fill="white"/>
<path d="M301.673 149.575H289.805C289.205 149.575 288.719 150.06 288.719 150.659C288.719 151.257 289.205 151.742 289.805 151.742H301.673C302.273 151.742 302.759 151.257 302.759 150.659C302.759 150.06 302.273 149.575 301.673 149.575Z" fill="white"/>
<path d="M268.201 250.336L259.228 187.411H324.45L332.843 250.336H268.201Z" fill="#D1D3D4"/>
<path d="M275.362 241.737L269.043 196.221H317.733L324.027 241.737H275.362Z" fill="white"/>
<path d="M275.362 230.411L270.929 197.27H316.265L319.623 222.86L305.264 203.983L294.744 226.424L284.783 215.098L275.362 230.411Z" fill="#BCBEC0"/>
<path d="M281.731 211.335C284.567 211.335 286.865 209.038 286.865 206.205C286.865 203.371 284.567 201.074 281.731 201.074C278.896 201.074 276.598 203.371 276.598 206.205C276.598 209.038 278.896 211.335 281.731 211.335Z" fill="white"/>
<path d="M158.369 52.5561H149.943V41.6694C149.943 41.1836 149.847 40.7026 149.661 40.2538C149.475 39.8051 149.202 39.3974 148.858 39.0541C148.514 38.7108 148.106 38.4386 147.657 38.253C147.207 38.0675 146.726 37.9723 146.24 37.9728H101.041C100.555 37.9723 100.074 38.0675 99.6246 38.253C99.1753 38.4386 98.7671 38.7108 98.4232 39.0541C98.0793 39.3974 97.8065 39.8051 97.6203 40.2538C97.4342 40.7026 97.3384 41.1836 97.3384 41.6694V63.4469C97.3395 64.4277 97.7301 65.368 98.4244 66.0611C99.1187 66.7542 100.06 67.1435 101.041 67.1435H146.24C147.221 67.1435 148.162 66.7542 148.857 66.0611C149.551 65.368 149.942 64.4277 149.943 63.4469V59.2323L158.369 52.5561Z" fill="#CCCCCC"/>
<path d="M140.078 45.9835H106.361C105.681 45.9835 105.13 46.5346 105.13 47.2143V47.2185C105.13 47.8982 105.681 48.4493 106.361 48.4493H140.078C140.758 48.4493 141.309 47.8982 141.309 47.2185V47.2143C141.309 46.5346 140.758 45.9835 140.078 45.9835Z" fill="#FAFAFA"/>
<path d="M140.078 51.3253H106.361C105.681 51.3253 105.13 51.8764 105.13 52.5561V52.5603C105.13 53.24 105.681 53.7911 106.361 53.7911H140.078C140.758 53.7911 141.309 53.24 141.309 52.5603V52.5561C141.309 51.8764 140.758 51.3253 140.078 51.3253Z" fill="#FAFAFA"/>
<path d="M127.742 56.6671H106.361C105.681 56.6671 105.13 57.2182 105.13 57.8979V57.9021C105.13 58.5818 105.681 59.1329 106.361 59.1329H127.742C128.422 59.1329 128.973 58.5818 128.973 57.9021V57.8979C128.973 57.2182 128.422 56.6671 127.742 56.6671Z" fill="#FAFAFA"/>
<path opacity="0.24" d="M259.228 224.17V187.411L264.871 224.17H259.228Z" fill="#3F3D56"/>
<path d="M187.466 103.902L186.537 95.8584L179.069 97.9429L180.955 105.663L187.466 103.902Z" fill="#F9B499"/>
<path d="M170.191 57.8068L170.041 59.8291C170.041 59.8291 168.325 63.0782 168.171 65.9832C168.08 67.674 168.039 70.1647 168.026 71.9549C168.014 73.3956 168.412 74.81 169.175 76.0328L172.617 81.5404L172.14 87.7566L178.36 100.226L187.582 97.8932L186.487 74.8724L182.755 62.7176L182.038 56.9407L170.191 57.8068Z" fill="#2F2E41"/>
<path d="M188.772 56.5387L188.938 59.1868C188.938 59.1868 196.344 43.439 206.449 41.4747C213.013 40.2314 215.605 47.3635 213.299 53.041C211.91 56.4641 205.628 62.1872 205.669 62.0421C205.711 61.8971 201.784 63.7827 201.784 63.7827C201.784 63.7827 196.978 73.3847 195.647 74.7729C194.735 75.722 186.019 75.2247 186.019 75.2247L182.991 68.9711L181.772 56.9904L188.772 56.5387Z" fill="#2F2E41"/>
<path d="M185.305 15.4577C185.544 15.1138 185.86 14.83 186.227 14.6284C186.594 14.4269 187.003 14.3132 187.422 14.2961C187.841 14.2791 188.258 14.3592 188.64 14.5302C189.022 14.7013 189.36 14.9585 189.626 15.2818C189.893 15.6051 190.08 15.9857 190.175 16.3936C190.269 16.8016 190.267 17.2259 190.17 17.6332C190.073 18.0405 189.883 18.4197 189.614 18.7411C189.346 19.0626 189.006 19.3174 188.623 19.4858C188.84 19.5889 189.035 19.7338 189.196 19.9122C189.357 20.0905 189.482 20.2989 189.562 20.5254C189.643 20.7518 189.678 20.992 189.666 21.2321C189.654 21.4721 189.595 21.7075 189.491 21.9246C189.388 22.1417 189.243 22.3365 189.065 22.4976C188.886 22.6587 188.678 22.7832 188.451 22.8638C188.225 22.9444 187.984 22.9796 187.744 22.9675C187.504 22.9553 187.268 22.8959 187.051 22.7928C186.915 23.1585 186.662 23.4692 186.331 23.6774C186.001 23.8855 185.611 23.9795 185.222 23.9449C184.441 23.8459 183.725 23.4586 183.215 22.8591C182.66 22.2644 182.261 21.5408 182.056 20.7536C181.85 19.9664 181.844 19.1404 182.038 18.3503C182.247 17.5651 182.673 16.8546 183.267 16.2999C183.86 15.7451 184.599 15.3685 185.397 15.2132" fill="#2F2E41"/>
<path d="M186.537 14.2435L186.57 14.2973C186.6 14.3502 186.625 14.4057 186.645 14.4631C186.728 14.6782 186.778 14.9045 186.794 15.1345C186.825 15.5346 186.767 15.9366 186.624 16.3115C186.48 16.6864 186.255 17.0247 185.965 17.3019V17.2355C186.235 17.6022 186.413 18.0287 186.483 18.4788C186.578 19.0287 186.505 19.5945 186.273 20.1024C186.042 20.6103 185.663 21.0366 185.185 21.3258C184.902 21.5006 184.59 21.6254 184.265 21.6947C184.176 21.7121 184.085 21.7231 183.995 21.7278H183.9C184.021 21.72 184.142 21.6949 184.256 21.6532C184.574 21.5639 184.875 21.424 185.148 21.2388C185.762 20.8369 186.194 20.2091 186.348 19.4915C186.503 18.7739 186.368 18.0244 185.973 17.4055C185.952 17.3693 185.928 17.3347 185.902 17.3019L185.878 17.2687L185.907 17.2355C186.225 16.9422 186.463 16.5728 186.599 16.1622C186.706 15.8364 186.753 15.4936 186.736 15.151C186.715 14.8403 186.648 14.5343 186.537 14.2435V14.2435Z" fill="#3F3D56"/>
<path d="M194.341 13.6964C194.248 13.7594 194.151 13.8162 194.051 13.8663C193.864 13.9741 193.586 14.1191 193.246 14.2807C192.558 14.633 191.587 15.1096 190.526 15.5779C189.464 16.0461 188.453 16.4564 187.744 16.7341C187.387 16.8708 187.092 16.9786 186.889 17.049C186.786 17.0863 186.678 17.1195 186.57 17.1485C186.667 17.0919 186.77 17.046 186.877 17.0117L187.706 16.6678C188.419 16.3735 189.402 15.9633 190.472 15.4867C191.542 15.0101 192.508 14.5543 193.201 14.2186L194.03 13.8042C194.13 13.7578 194.234 13.7217 194.341 13.6964Z" fill="#0071F2"/>
<path d="M191.795 11.1892C191.816 11.1892 190.746 12.2336 189.402 13.4768C188.059 14.7201 186.96 15.7105 186.943 15.6898C186.927 15.6691 187.992 14.6455 189.336 13.4022C190.679 12.159 191.778 11.1519 191.795 11.1892Z" fill="#0071F2"/>
<path d="M180.13 6.94561C180.13 4.84867 177.642 4.74507 176.353 5.28795C175.669 4.35552 175.179 3.88309 173.612 3.78363C172.895 3.76271 172.183 3.90049 171.527 4.18709C170.87 4.47369 170.285 4.902 169.813 5.44129C169.379 6.03065 169.108 6.72358 169.025 7.45081C168.943 8.17804 169.053 8.91411 169.345 9.58544C169.54 10.0289 169.818 10.4723 169.76 10.953C169.677 11.6451 168.968 12.0512 168.516 12.5775C168.14 13.0286 167.925 13.5912 167.903 14.1774C167.881 14.7637 168.054 15.3406 168.395 15.8182C168.839 16.4109 169.548 16.8253 169.789 17.5298C169.983 18.1182 169.789 18.773 169.834 19.3822C169.899 19.9508 170.12 20.4903 170.472 20.9409C170.825 21.3916 171.296 21.7357 171.833 21.935C172.921 22.3123 174.108 22.2873 175.179 21.8646" fill="#2F2E41"/>
<path d="M170.954 28.9552L174.885 27.194L175.022 24.5666C175.022 24.5666 172.086 24.1273 171.385 20.3064C171.045 18.4001 171.086 15.2629 171.203 12.6936C171.306 10.3853 173.753 8.03554 176.058 8.2386L183.522 9.52743V10.7707L183.597 27.8694L189.842 30.4927L178.72 38.8432L170.954 28.9552Z" fill="#F9B499"/>
<path d="M175.017 24.5665C176.83 24.5591 178.605 24.0515 180.147 23.0995C180.147 23.0995 178.824 25.8098 174.968 25.5197L175.017 24.5665Z" fill="#7C3B29"/>
<path d="M170.187 8.02725C170.775 9.38239 172.119 11.4172 173.587 11.5954C174.326 11.6753 175.073 11.565 175.758 11.2749C176.442 10.9847 177.041 10.5244 177.497 9.93771C177.721 11.0318 178.936 11.6161 180.039 11.7943C180.819 11.9521 181.626 11.8977 182.378 11.6368C182.75 11.5004 183.082 11.2712 183.341 10.971C183.6 10.6707 183.778 10.3094 183.858 9.92113C183.978 9.14203 182.867 7.22329 182.088 7.0741" fill="#2F2E41"/>
<path d="M180.304 10.7292C180.049 11.3051 180.029 11.9585 180.251 12.5485C180.479 13.1348 180.925 13.6109 181.495 13.8788C181.243 14.2313 181.074 14.6365 181.002 15.0638C180.93 15.4911 180.957 15.9291 181.08 16.3445C181.325 17.1818 181.729 17.9641 182.27 18.6487C182.27 18.6487 180.947 20.5591 183.609 21.964C183.609 21.964 185.479 21.3838 184.646 18.5658C184.578 18.3647 184.59 18.1451 184.679 17.9525C184.794 17.7893 184.954 17.6627 185.139 17.5878C185.842 17.1969 186.363 16.5454 186.59 15.7739C186.817 15.0025 186.73 14.1729 186.35 13.4644C186.233 13.2874 186.145 13.0929 186.089 12.8883C186.035 12.5734 185.795 11.7445 185.902 11.4462C186.475 9.86723 185.741 7.90705 183.887 6.93317C182.403 6.15407 180.545 6.0256 179.409 7.25641" fill="#2F2E41"/>
<path d="M165.215 35.3787C165.746 30.7704 168.702 29.7385 168.702 29.7385L168.184 55.7637L161.28 73.0904L155.371 71.3789C155.371 71.3789 164.68 39.9828 165.215 35.3787Z" fill="#0071F2"/>
<path d="M193.93 33.0123C193.93 33.0123 195.63 36.883 195.63 38.9219C195.63 40.9608 197.671 54.1558 195.63 56.9531C193.59 59.7504 189.589 59.6385 188.448 59.5473C186.893 59.4147 179.637 46.0084 179.935 45.8343L184.016 44.9475C184.016 44.9475 186.873 45.1257 188.237 46.2778C189.601 47.4298 190.932 46.0996 190.932 46.0996L193.81 33.721" fill="#0071F2"/>
<path d="M188.258 29.7343C188.258 29.7343 192.927 31.3174 193.943 33.0123C194.959 34.7073 189.087 56.4517 189.087 56.4517L170.203 57.8068C170.203 57.8068 168.715 57.5333 168.308 56.1823C167.902 54.8313 168.723 29.7343 168.723 29.7343L173.587 27.5048C173.587 27.5048 176.232 30.2109 177.837 30.6667C179.442 31.1226 188.258 29.7343 188.258 29.7343Z" fill="#0071F2"/>
<path d="M169.909 36.4437C169.976 36.4313 170.045 36.4313 170.112 36.4437L170.697 36.481L172.845 36.6467C174.653 36.7794 177.157 36.9327 179.927 37.0114C182.697 37.0902 185.206 37.0777 187.022 37.0446L189.174 36.999H189.759C189.826 36.9866 189.895 36.9866 189.962 36.999C189.896 37.017 189.827 37.0268 189.759 37.028L189.174 37.0777C188.668 37.115 187.93 37.1523 187.026 37.1896C185.21 37.2601 182.697 37.2974 179.919 37.2186C177.141 37.1399 174.64 36.9617 172.828 36.8042C171.924 36.7213 171.194 36.6385 170.688 36.5721L170.108 36.4934C170.04 36.4851 169.973 36.4684 169.909 36.4437Z" fill="#FAFAFA"/>
<path d="M174.785 43.6669C174.98 43.6503 175.175 43.6503 175.37 43.6669L176.958 43.7374C178.302 43.7995 180.155 43.87 182.208 43.9073C184.26 43.9446 186.114 43.9321 187.457 43.9073H189.05C189.244 43.8866 189.44 43.8866 189.634 43.9073C189.442 43.948 189.246 43.9702 189.05 43.9736C188.677 44.0026 188.133 44.0316 187.462 44.0565C186.114 44.1103 184.256 44.1435 182.204 44.1103C180.151 44.0772 178.293 43.9777 176.95 43.8783C176.282 43.8285 175.739 43.7788 175.362 43.7415C175.168 43.7353 174.975 43.7103 174.785 43.6669V43.6669Z" fill="#FAFAFA"/>
<path d="M190.12 41.2053C190.389 41.1297 190.669 41.0947 190.949 41.1017C191.64 41.0685 192.332 41.0768 193.022 41.1266C193.708 41.1722 194.391 41.2594 195.067 41.3876C195.353 41.4172 195.633 41.4913 195.896 41.6073C195.896 41.6694 194.606 41.4498 193.014 41.3421C191.422 41.2343 190.124 41.2675 190.12 41.2053Z" fill="#FAFAFA"/>
<path d="M164.954 38.0599C166.567 37.9873 168.168 38.3708 169.573 39.1664C169.544 39.2244 168.565 38.7976 167.292 38.495C166.019 38.1925 164.949 38.1262 164.954 38.0599Z" fill="#FAFAFA"/>
<path d="M191.633 49.0875C192.49 49.0883 193.342 49.2282 194.154 49.5019C194.986 49.7138 195.778 50.061 196.497 50.5296C196.468 50.5876 195.431 50.1152 194.092 49.7008C192.753 49.2864 191.625 49.1538 191.633 49.0875Z" fill="#FAFAFA"/>
<path d="M190.476 59.5722C190.443 59.41 190.431 59.2443 190.439 59.079C190.439 58.7599 190.439 58.2999 190.389 57.7363C190.24 54.7855 189.651 51.8733 188.643 49.0958C188.453 48.5653 188.291 48.1343 188.171 47.8525C188.1 47.7033 188.047 47.546 188.013 47.3842C188.107 47.5134 188.186 47.6524 188.249 47.7986C188.39 48.0846 188.577 48.5073 188.788 49.0419C189.327 50.4257 189.743 51.854 190.032 53.3104C190.327 54.7668 190.493 56.2465 190.526 57.7322V59.079C190.523 59.2445 190.506 59.4094 190.476 59.5722V59.5722Z" fill="#FAFAFA"/>
<path d="M168.507 55.1172C168.722 55.1227 168.936 55.1491 169.146 55.196C169.56 55.2664 170.145 55.3534 170.879 55.4446C172.79 55.6772 174.715 55.759 176.639 55.6891C178.563 55.6101 180.478 55.3787 182.365 54.997C183.091 54.852 183.676 54.7194 184.078 54.6158C184.283 54.5526 184.494 54.5096 184.708 54.4873C184.514 54.571 184.314 54.643 184.111 54.7028C183.696 54.8271 183.132 54.9846 182.411 55.1504C178.615 56.0108 174.693 56.1625 170.842 55.5979C170.108 55.486 169.519 55.3742 169.113 55.2788C168.908 55.2375 168.706 55.1835 168.507 55.1172V55.1172Z" fill="#FAFAFA"/>
<path d="M162.134 49.2781C162.442 49.2539 162.752 49.2735 163.054 49.3361C163.618 49.4066 164.398 49.5392 165.244 49.7506C165.967 49.9123 166.682 50.1129 167.384 50.3515C167.682 50.43 167.969 50.547 168.238 50.6996C168.238 50.7617 166.878 50.3473 165.194 49.9619C163.511 49.5765 162.134 49.3403 162.134 49.2781Z" fill="#FAFAFA"/>
<path d="M159.492 59.3028C159.817 59.3414 160.136 59.4178 160.442 59.5307C161.018 59.7006 161.81 59.9451 162.669 60.2767C163.527 60.6082 164.298 60.9149 164.846 61.1635C165.153 61.2751 165.444 61.4255 165.712 61.6111C165.395 61.5383 165.086 61.4356 164.788 61.3044L162.594 60.4756L160.396 59.6716C160.084 59.5782 159.781 59.4547 159.492 59.3028V59.3028Z" fill="#FAFAFA"/>
<path d="M156.627 67.7942C156.925 67.8429 157.216 67.9322 157.49 68.0594C158.012 68.2542 158.734 68.5484 159.492 68.909C160.251 69.2695 160.944 69.6301 161.425 69.9077C161.698 70.0372 161.953 70.2015 162.184 70.3967C162.155 70.4506 160.94 69.8248 159.401 69.1079C157.863 68.3909 156.602 67.8481 156.627 67.7942Z" fill="#FAFAFA"/>
<path d="M171.849 28.5656C172.071 28.6708 172.283 28.7942 172.484 28.9344C173.057 29.2735 173.651 29.5753 174.263 29.8379C176.295 30.6641 178.456 31.1297 180.649 31.2137C182.842 31.2885 185.039 31.1887 187.217 30.9153L189.207 30.6916C189.448 30.6515 189.693 30.6321 189.937 30.6335C189.7 30.6952 189.459 30.7423 189.216 30.7744C188.751 30.849 188.075 30.9568 187.238 31.0687C185.052 31.3854 182.843 31.5061 180.636 31.4292C178.416 31.3456 176.23 30.8539 174.188 29.9788C173.577 29.7042 172.988 29.3798 172.43 29.009C172.227 28.8806 172.086 28.7645 171.982 28.6899C171.935 28.6518 171.891 28.6102 171.849 28.5656V28.5656Z" fill="#FAFAFA"/>
<g opacity="0.3">
<path d="M183.767 53.0452C182.788 53.2897 181.801 52.7261 180.794 52.6722C179.882 52.6266 179.011 52.9996 178.132 53.2399C176.21 53.7548 174.173 53.6326 172.326 52.8918C172.106 52.8168 171.905 52.6936 171.738 52.5313C171.656 52.4294 171.603 52.3081 171.584 52.1794C171.564 52.0507 171.579 51.9192 171.626 51.7978C173.326 51.7978 175.013 51.8516 176.713 51.8351C177.061 51.8607 177.408 51.7934 177.721 51.6403C177.797 51.5968 177.859 51.532 177.899 51.4538C177.899 51.4538 178.915 51.4206 179.276 51.4165C180.105 51.4165 181.038 51.4828 181.855 51.4787C182.212 51.4787 183.356 51.5243 183.332 51.5243" fill="black"/>
</g>
<g opacity="0.3">
<path d="M189.357 45.7763C190.803 46.0387 192.148 46.7004 193.238 47.6867C193.363 47.7904 193.467 47.917 193.545 48.0597C193.585 48.1303 193.607 48.2103 193.607 48.2918C193.607 48.3733 193.585 48.4533 193.545 48.5239C193.481 48.6006 193.395 48.6562 193.299 48.6836C193.203 48.7109 193.1 48.7087 193.006 48.6772C192.819 48.6064 192.649 48.4993 192.504 48.3622L189.286 45.6395" fill="black"/>
</g>
<path d="M160.127 72.734L159.136 75.2992L148.744 75.2247C148.744 75.2247 148.255 74.7108 148.666 74.5409C148.815 74.4828 155.499 72.3652 155.499 72.3652L155.802 71.4825L160.127 72.734Z" fill="#F9B499"/>
<path d="M175.552 45.768L173.579 41.512L166.786 41.0851L166.546 41.4788L171.696 51.3958L177.899 51.4455L175.552 45.768Z" fill="#2F2E41"/>
<path d="M175.312 46.1534L173.359 41.9098L166.567 41.4954L171.476 51.8019L176.983 51.8433C177.31 51.8415 177.626 51.7207 177.87 51.5035L177.92 51.4579L175.312 46.1534Z" fill="#2F2E41"/>
<path d="M170.162 28.9552C170.229 29.0153 170.317 29.0468 170.406 29.0429C170.496 29.039 170.581 29.0001 170.643 28.9345V28.9345C170.707 28.87 170.743 28.7829 170.743 28.692C170.743 28.6012 170.707 28.5141 170.643 28.4496C170.575 28.3888 170.486 28.3572 170.395 28.3619C170.304 28.3666 170.219 28.407 170.158 28.4745C170.128 28.5073 170.105 28.5457 170.09 28.5875C170.075 28.6293 170.068 28.6736 170.071 28.718C170.073 28.7623 170.084 28.8057 170.103 28.8457C170.122 28.8857 170.149 28.9215 170.182 28.9511L170.162 28.9552Z" fill="#EBEBEB"/>
<path d="M183.282 46.3813L180.657 46.5347C180.335 46.0804 179.915 45.704 179.429 45.4329C178.942 45.1619 178.401 45.0031 177.845 44.9682L176.904 44.9102L176.208 45.5857C176.208 45.5857 171.601 45.4945 171.397 46.0498V46.3399L175.308 46.8496C175.308 46.8496 171.99 46.63 171.766 46.6258C171.543 46.6217 170.838 46.5098 170.829 46.9035C170.829 47.2267 171.186 47.5044 171.758 47.6246C171.995 47.6743 174.872 48.1094 174.872 48.1094L171.688 47.8774C171.331 47.8774 171.339 48.4285 171.547 48.5156C171.754 48.6026 175.718 50.0282 175.718 50.0282C175.332 50.2529 174.892 50.3716 174.445 50.3721C173.89 50.2934 172.973 49.5143 172.753 49.8417C172.534 50.1691 172.559 50.3721 172.675 50.4592C173.258 50.8347 173.868 51.1685 174.499 51.4579C174.914 51.6071 179.38 51.3833 179.38 51.3833L184.028 51.5408L183.282 46.3813Z" fill="#F9B499"/>
<path d="M174.64 45.5442C175.18 45.5249 175.72 45.5387 176.257 45.5857C176.796 45.5986 177.334 45.6471 177.866 45.7307C176.788 45.7378 175.71 45.6755 174.64 45.5442V45.5442Z" fill="#7C3B29"/>
<path d="M174.935 45.3578C174.935 45.3578 174.889 45.2707 174.81 45.105L174.487 44.3963C174.201 43.754 173.819 42.9086 173.38 41.9388H173.404L171.849 41.8394L168.117 41.5907L166.981 41.5078L166.67 41.483H166.981L168.122 41.5451L171.874 41.7772L173.429 41.8767L174.512 44.3632L174.823 45.0801C174.901 45.2624 174.935 45.3578 174.935 45.3578Z" fill="#263238"/>
<path d="M201.17 68.0884L196.651 73.7659C196.651 73.7659 207.548 74.056 200.486 80.9726L188.834 73.0324L195.518 63.8862L201.17 68.0884Z" fill="#0071F2"/>
<g opacity="0.6">
<path d="M188.834 73.0407L189.444 72.0751L200.428 80.1313C200.523 80.2463 200.579 80.3879 200.59 80.5365C200.6 80.685 200.564 80.8331 200.486 80.9601L188.834 73.0407Z" fill="white"/>
</g>
<path d="M187.275 101.913L188.345 109.095C188.345 109.095 196 101.337 196.223 111.217L182.465 114.304L180.35 103.189L187.275 101.913Z" fill="#0071F2"/>
<g opacity="0.6">
<path d="M182.473 114.304L182.183 113.197L195.572 110.678C195.725 110.686 195.872 110.743 195.99 110.84C196.109 110.936 196.193 111.068 196.232 111.217L182.473 114.304Z" fill="white"/>
</g>
<path d="M205.669 62.0421L200.963 67.9351L195.647 63.9899L200.163 57.0857L205.669 62.0421Z" fill="#F9B499"/>
<path d="M138.602 145.232H137.188V225.318H138.602V145.232Z" fill="#2F2E41"/>
<path d="M142.288 137.685H133.402C132.543 137.685 131.847 138.381 131.847 139.239V140.483C131.847 141.341 132.543 142.037 133.402 142.037H142.288C143.147 142.037 143.843 141.341 143.843 140.483V139.239C143.843 138.381 143.147 137.685 142.288 137.685Z" fill="#2F2E41"/>
<path d="M142.777 142.037C143.416 142.037 143.934 141.063 143.934 139.861C143.934 138.659 143.416 137.685 142.777 137.685C142.138 137.685 141.62 138.659 141.62 139.861C141.62 141.063 142.138 142.037 142.777 142.037Z" fill="#2F2E41"/>
<path opacity="0.2" d="M142.777 142.037C143.416 142.037 143.934 141.063 143.934 139.861C143.934 138.659 143.416 137.685 142.777 137.685C142.138 137.685 141.62 138.659 141.62 139.861C141.62 141.063 142.138 142.037 142.777 142.037Z" fill="black"/>
<path d="M75.1662 171.792L81.6889 179.027L94.6182 174.523L95.2277 183.051C95.2277 183.051 79.5534 186.727 78.5541 186.222C77.5547 185.716 71.4301 173.039 71.4301 173.039L75.1662 171.792Z" fill="#F9B499"/>
<path d="M78.0855 175.041C77.3059 174.212 76.572 172.679 75.8919 171.779C75.6514 171.448 75.7095 170.565 75.6846 170.146C75.6535 169.559 75.4753 168.989 75.1663 168.489L74.7972 165.451L74.5899 165.281C74.4022 165.297 74.2273 165.383 74.1005 165.522C73.9736 165.661 73.904 165.843 73.9057 166.031V167.163C73.9057 167.163 70.862 162.932 70.1157 163.039C69.3693 163.147 69.5351 163.665 69.5351 163.665L71.4467 166.752C71.4467 166.752 68.3533 163.267 67.8018 163.226C67.2503 163.184 66.8274 163.342 66.9974 163.802C67.1674 164.262 69.6181 167.295 69.6181 167.295C69.6181 167.295 66.7154 164.204 66.2054 164.585C65.6953 164.966 66.2054 165.522 66.3961 165.828L68.4197 168.667C68.4197 168.667 66.5164 167.175 66.1846 167.465C65.8529 167.755 66.1307 168.182 66.2966 168.294C66.4625 168.406 68.2953 169.84 68.6229 170.611C68.9504 171.381 71.2021 173.868 71.2021 173.868L73.4537 177.142L78.0855 175.041Z" fill="#F9B499"/>
<path d="M86.5073 176.678L96.932 171.982C98.6321 171.419 102.949 171.153 102.949 171.153L96.4717 185.161L89.8371 186.441L86.5073 176.678Z" fill="#0071F2"/>
<path d="M108.203 269.925L108.526 273.692L108.31 279.092L101.128 279.262L101.439 274.123L101.087 270.294L108.203 269.925Z" fill="#0071F2"/>
<path d="M108.339 278.189L101.087 278.272V279.262L108.344 279.25L108.339 278.189Z" fill="#2F2E41"/>
<path d="M117.354 269.925L117.682 273.692L117.462 279.092L110.284 279.262L110.587 274.123L110.239 270.294L117.354 269.925Z" fill="#0071F2"/>
<path d="M117.491 278.189L110.239 278.272V279.262L117.495 279.25L117.491 278.189Z" fill="#2F2E41"/>
<path d="M95.4309 210.133L94.838 224.497L97.214 247.704C97.214 247.704 97.3964 262.971 98.3336 266.324C99.1088 268.829 100.071 271.273 101.211 273.634L108.675 272.495L108.642 245.86L110.537 223.482V210.784L95.4309 210.133Z" fill="#2F2E41"/>
<path d="M123.288 210.133L123.114 224.223L121.567 247.692C121.567 247.692 121.335 262.959 120.398 266.311C119.684 268.674 118.79 270.978 117.723 273.203H110.301L110.085 245.943L108.227 223.498V210.784L123.288 210.133Z" fill="#2F2E41"/>
<path d="M110.417 149.086L110.612 149.04C110.924 148.515 111.363 148.076 111.888 147.763C112.412 147.449 113.007 147.272 113.618 147.246C114.851 147.216 116.047 147.661 116.96 148.489C117.591 149.049 118.092 149.732 118.731 150.3C119.028 150.603 119.391 150.833 119.792 150.972C120.192 151.111 120.62 151.157 121.041 151.104C121.144 151.415 120.568 151.622 120.601 151.933C120.601 152.086 120.779 152.186 120.929 152.215C121.155 152.235 121.382 152.235 121.609 152.215C121.718 152.213 121.826 152.244 121.917 152.304C122.009 152.364 122.081 152.449 122.123 152.55C122.152 152.656 122.152 152.768 122.123 152.874C121.907 153.851 121.445 154.757 120.779 155.505C120.443 155.874 120.023 156.156 119.555 156.327C119.086 156.498 118.583 156.553 118.088 156.487C117.313 156.278 116.6 155.881 116.015 155.331L112.486 152.505C111.923 152.096 111.417 151.614 110.981 151.071C110.761 150.794 110.597 150.475 110.5 150.135C110.404 149.794 110.375 149.438 110.417 149.086V149.086Z" fill="#2F2E41"/>
<path d="M111.159 149.281C110.68 148.876 110.112 148.592 109.5 148.452C109.198 148.387 108.885 148.384 108.581 148.443C108.277 148.501 107.987 148.62 107.73 148.792C107.295 149.17 106.93 149.622 106.652 150.126C106.51 150.378 106.318 150.599 106.089 150.776C105.86 150.953 105.597 151.081 105.317 151.154C105.214 151.157 105.115 151.188 105.03 151.245C104.902 151.365 104.997 151.61 105.155 151.68C105.323 151.734 105.505 151.734 105.673 151.68C105.386 152.011 104.994 152.232 104.562 152.306C104.622 152.511 104.759 152.685 104.944 152.792C105.13 152.898 105.349 152.929 105.557 152.878C105.366 153.54 105.258 154.224 105.234 154.913C105.213 155.605 105.449 156.282 105.897 156.811C106.415 157.37 107.249 157.677 107.477 158.406" fill="#2F2E41"/>
<path d="M116.106 173.532L106.905 173.412L107.937 165.584C107.937 165.584 107.307 165.447 107.265 162.036C107.224 158.626 107.062 152.84 107.062 152.84C109.001 152.008 111.127 151.708 113.22 151.971C115.314 152.234 117.299 153.051 118.971 154.337L119.486 154.726L116.106 173.532Z" fill="#F9B499"/>
<path d="M118.416 158.916C118.474 158.916 120.759 158.224 120.684 160.553C120.609 162.882 118.287 162.331 118.283 162.264C118.279 162.198 118.416 158.916 118.416 158.916Z" fill="#F9B499"/>
<path d="M107.469 158.431C107.411 158.431 105.333 157.842 105.395 160.176C105.457 162.509 107.796 161.949 107.796 161.883C107.796 161.817 107.469 158.431 107.469 158.431Z" fill="#F9B499"/>
<path d="M119.175 158.659C118.826 160.611 118.893 161.634 118.573 162.94C118.379 163.919 117.975 164.845 117.388 165.653C116.801 166.46 116.045 167.131 115.173 167.619C113.315 168.646 110.798 168.646 109.202 167.204C108.077 166.339 107.333 165.069 107.129 163.665C106.967 162.198 106.531 159.446 106.523 157.971C106.523 155.31 106.594 152.923 106.594 152.923L114.199 151.547L118.532 154.162L119.175 158.659Z" fill="#2F2E41"/>
<path d="M111.308 168.791C111.735 168.949 112.196 168.99 112.644 168.912C113.098 168.89 113.537 168.747 113.917 168.497C113.917 168.443 113.328 168.617 112.619 168.696C111.91 168.775 111.342 168.729 111.308 168.791Z" fill="#2F2E41"/>
<path d="M118.806 161.974C119.029 159.977 119.175 157.689 119.486 155.576C119.69 154.681 119.8 153.767 119.813 152.849C119.743 152.049 119.527 152.289 119.175 151.568C118.731 150.669 117.039 150.06 116.052 149.865C115.065 149.67 114.941 148.833 114.186 149.471C113.903 149.063 113.504 148.748 113.04 148.569C112.577 148.389 112.07 148.353 111.585 148.464C111.1 148.575 110.66 148.828 110.321 149.192C109.982 149.555 109.76 150.012 109.683 150.503C109.409 150.245 109.059 150.085 108.685 150.045C108.311 150.006 107.934 150.091 107.613 150.286C107.292 150.481 107.044 150.777 106.907 151.127C106.77 151.477 106.752 151.862 106.855 152.223C106.576 152.264 106.313 152.375 106.089 152.545C105.865 152.716 105.688 152.941 105.575 153.199C105.462 153.457 105.417 153.739 105.444 154.019C105.47 154.3 105.568 154.568 105.727 154.801C106.075 155.339 106.71 155.629 107.104 156.16C107.322 156.462 107.449 156.821 107.469 157.194C107.489 157.567 107.401 157.937 107.216 158.261" fill="#2F2E41"/>
<path d="M109.011 161.56C108.897 162.261 108.988 162.981 109.272 163.632C109.484 164.301 109.888 164.893 110.433 165.335C110.064 164.769 109.744 164.173 109.476 163.553C109.265 162.903 109.109 162.236 109.011 161.56V161.56Z" fill="#2F2E41"/>
<path d="M107.991 159.857C107.779 160.449 107.727 161.088 107.839 161.707C107.951 162.327 108.224 162.906 108.63 163.387C108.072 162.3 107.849 161.071 107.991 159.857V159.857Z" fill="#2F2E41"/>
<path d="M117.562 151.804C117.013 150.867 116.183 150.124 115.19 149.683C114.692 149.471 114.148 149.396 113.612 149.464C113.076 149.531 112.567 149.74 112.138 150.068" fill="#2F2E41"/>
<path d="M117.371 156.964C117.353 156.732 117.38 156.498 117.45 156.276C117.553 155.743 117.612 155.202 117.624 154.66C117.623 154.125 117.503 153.596 117.271 153.114C117.093 152.749 116.906 152.559 116.94 152.526C116.973 152.492 117.197 152.65 117.454 153.044C117.753 153.535 117.91 154.101 117.906 154.676C117.901 155.238 117.814 155.797 117.649 156.334C117.495 156.728 117.408 156.972 117.371 156.964Z" fill="#2F2E41"/>
<path d="M115.799 157.722C115.849 157.352 115.952 156.99 116.106 156.649C116.293 156.065 116.405 155.58 116.483 155.592C116.567 155.972 116.525 156.369 116.363 156.724C116.168 157.345 115.861 157.772 115.799 157.722Z" fill="#2F2E41"/>
<path d="M108.501 157.134C108.258 156.908 108.079 156.622 107.983 156.305C107.679 155.555 107.602 154.733 107.761 153.94C107.919 153.147 108.306 152.418 108.874 151.842C109.09 151.584 109.366 151.385 109.679 151.262C109.704 151.299 109.401 151.514 109.015 151.958C108.516 152.534 108.176 153.231 108.031 153.979C107.885 154.728 107.939 155.501 108.186 156.222C108.335 156.798 108.534 157.113 108.501 157.134Z" fill="#2F2E41"/>
<path d="M116.811 148.448C116.548 148.373 116.295 148.267 116.056 148.133C115.487 147.851 114.863 147.697 114.228 147.681C113.918 147.678 113.611 147.738 113.325 147.859C113.04 147.979 112.783 148.157 112.569 148.381C112.414 148.591 112.275 148.813 112.154 149.044C112.125 149.044 112.113 148.696 112.428 148.261C112.618 148.012 112.862 147.81 113.141 147.669C113.481 147.499 113.856 147.411 114.236 147.412C114.915 147.422 115.579 147.612 116.16 147.963C116.394 148.1 116.612 148.263 116.811 148.448V148.448Z" fill="#2F2E41"/>
<path d="M106.411 150.627C106.382 150.627 106.436 150.354 106.685 150.01C107.013 149.558 107.481 149.227 108.016 149.069C108.553 148.919 109.125 148.947 109.646 149.148C110.035 149.314 110.222 149.504 110.205 149.525C110.189 149.546 109.965 149.438 109.583 149.335C109.096 149.194 108.578 149.194 108.091 149.335C107.612 149.483 107.182 149.758 106.847 150.13C106.569 150.433 106.449 150.648 106.411 150.627Z" fill="#2F2E41"/>
<path d="M108.916 159.189C108.916 159.156 109.293 159.053 109.907 158.775C110.742 158.395 111.504 157.871 112.158 157.229L112.598 156.815L112.362 157.387C112.209 157.74 112.097 158.11 112.03 158.489C111.988 158.68 111.964 158.928 112.03 158.961C112.096 158.995 112.295 158.912 112.469 158.791C113.052 158.41 113.573 157.944 114.016 157.407L114.431 156.927L114.244 157.527C114.058 158.124 113.888 158.688 113.73 159.185L113.556 159.082C114.121 158.514 114.62 157.884 115.045 157.204C114.994 157.422 114.904 157.628 114.779 157.813C114.491 158.335 114.13 158.813 113.705 159.231L113.415 159.513L113.527 159.127C113.672 158.613 113.825 158.05 114.004 157.449L114.219 157.561C113.763 158.126 113.218 158.614 112.606 159.007C112.513 159.076 112.413 159.135 112.308 159.185C112.243 159.23 112.166 159.254 112.087 159.254C112.008 159.254 111.931 159.23 111.867 159.184C111.802 159.139 111.753 159.075 111.726 159.001C111.699 158.927 111.695 158.847 111.715 158.771C111.721 158.662 111.736 158.554 111.76 158.447C111.837 158.048 111.958 157.659 112.121 157.287L112.324 157.428C111.638 158.069 110.836 158.572 109.961 158.912C109.629 159.059 109.277 159.153 108.916 159.189V159.189Z" fill="#2F2E41"/>
<path d="M113.369 150.205C113.293 150.066 113.188 149.943 113.063 149.846C112.937 149.748 112.793 149.677 112.639 149.637C112.327 149.567 112.002 149.567 111.69 149.637C110.916 149.778 110.214 150.182 109.704 150.781C109.592 150.922 109.488 151.133 109.612 151.262C109.687 151.319 109.779 151.35 109.874 151.349C111.019 151.446 112.171 151.405 113.307 151.228" fill="#2F2E41"/>
<path d="M96.451 176.611C96.451 176.611 95.7419 204.667 95.9368 205.293C96.1317 205.919 94.6638 211.766 95.2277 213.424H108.912L123.914 212.628L120.908 199.47L121.169 196.134C121.169 196.134 124.574 176.242 124.835 176.044C125.096 175.845 116.77 171.406 116.77 171.406L107.722 170.519L100.349 171.526L96.451 176.611Z" fill="#0071F2"/>
<path d="M136.798 189.997L133.381 193.855L130.516 188.115L124.399 191.315C124.648 191.762 129.039 200.784 132.324 200.788C134.397 200.788 135.558 199.363 137.138 197.092C138.245 195.395 139.176 193.59 139.916 191.704L136.798 189.997Z" fill="#F9B499"/>
<path d="M121.032 184.941L123.019 192.885C123.019 192.885 126.933 192.372 128.803 191.248C129.909 190.598 130.931 189.814 131.847 188.915C131.847 188.915 127.862 179.798 127.107 178.223C126.079 176.077 123.375 175.38 123.375 175.38L120.319 180.155L121.032 184.941Z" fill="#0071F2"/>
<path d="M116.351 194.593C116.17 194.648 115.984 194.682 115.795 194.692L114.248 194.875C112.955 195.028 111.155 195.239 109.206 195.513C107.257 195.786 105.474 196.06 104.18 196.259L102.659 196.499C102.472 196.538 102.281 196.556 102.09 196.553C102.264 196.474 102.449 196.421 102.638 196.396C102.994 196.313 103.509 196.205 104.147 196.076C105.428 195.824 107.199 195.517 109.169 195.248C111.138 194.978 112.926 194.796 114.228 194.692C114.875 194.643 115.401 194.605 115.774 194.589C115.966 194.563 116.16 194.565 116.351 194.593Z" fill="#263238"/>
<path d="M117.416 201.31C117.416 201.385 114.029 201.509 109.849 201.592C105.669 201.675 102.277 201.679 102.273 201.592C102.269 201.505 105.661 201.393 109.845 201.31C114.029 201.228 117.416 201.236 117.416 201.31Z" fill="#263238"/>
<path d="M77.0156 184C77.271 183.833 77.4649 183.587 77.5682 183.3C77.6714 183.013 77.6783 182.7 77.5879 182.409C77.4916 182.095 77.3042 181.817 77.0496 181.61C76.7949 181.402 76.4843 181.275 76.1573 181.244C76.2696 181.115 76.3537 180.963 76.4043 180.799C76.455 180.635 76.4711 180.462 76.4517 180.291C76.425 180.122 76.3503 179.963 76.2364 179.835C76.1225 179.706 75.9742 179.613 75.809 179.566C75.6222 179.536 75.4308 179.57 75.2664 179.664C75.102 179.757 74.9744 179.904 74.905 180.08L75.9375 182.077L77.0156 184Z" fill="#F4A48E"/>
<g opacity="0.3">
<path d="M122.256 189.549C123.201 188.274 123.818 186.786 124.051 185.216C124.284 183.646 124.126 182.043 123.591 180.548C123.11 183.543 122.629 186.534 122.148 189.52" fill="black"/>
</g>
<path d="M137.084 184.618C136.844 184.774 136.649 184.99 136.518 185.244C136.386 185.499 136.323 185.782 136.333 186.068C136.438 187.01 136.648 187.938 136.96 188.832L135.376 191.601L138.801 194.241L141.197 191.149C141.197 191.149 144.187 188.43 144.262 187.859C144.336 187.287 143.69 186.777 143.69 186.777C143.69 186.777 143.934 185.695 143.441 185.277C142.947 184.858 142.985 185.086 142.985 185.086C142.985 185.086 142.985 183.884 142.242 183.843C141.725 183.826 141.207 183.856 140.696 183.934C140.696 183.934 140.845 180.03 140.484 179.736C140.424 179.672 140.351 179.621 140.271 179.585C140.191 179.549 140.104 179.53 140.017 179.527C139.929 179.525 139.841 179.54 139.759 179.572C139.677 179.603 139.602 179.651 139.539 179.711C139.452 179.792 139.389 179.895 139.356 180.01C139.278 180.395 138.527 185.19 138.407 185.31C138.338 185.376 138.256 185.429 138.167 185.463C138.077 185.498 137.982 185.515 137.886 185.513C137.79 185.512 137.696 185.491 137.608 185.452C137.52 185.414 137.441 185.358 137.374 185.289C137.295 185.207 137.236 185.108 137.2 184.999L137.084 184.618Z" fill="#F9B499"/>
<path d="M198.728 122.186C197.848 122.185 196.983 122.414 196.218 122.85C195.454 123.286 194.816 123.915 194.37 124.673C193.807 123.716 192.944 122.97 191.915 122.551C190.886 122.133 189.748 122.064 188.676 122.356C187.604 122.647 186.657 123.283 185.983 124.166C185.308 125.048 184.943 126.127 184.943 127.238C184.943 128.348 185.308 129.428 185.983 130.31C186.657 131.192 187.604 131.828 188.676 132.12C189.748 132.412 190.886 132.343 191.915 131.924C192.944 131.506 193.807 130.76 194.37 129.803C194.82 130.567 195.463 131.2 196.234 131.638C197.006 132.076 197.879 132.303 198.766 132.298C199.653 132.292 200.524 132.054 201.29 131.606C202.056 131.158 202.69 130.518 203.13 129.748C203.571 128.978 203.8 128.106 203.797 127.219C203.794 126.332 203.557 125.462 203.111 124.695C202.666 123.928 202.026 123.292 201.257 122.851C200.487 122.409 199.615 122.177 198.728 122.178V122.186Z" fill="white"/>
<path d="M191.575 141.556H189.041C188.302 141.556 187.593 141.263 187.07 140.741C186.546 140.218 186.252 139.51 186.251 138.771V134.536C186.251 133.817 186.529 133.126 187.027 132.608C187.524 132.089 188.203 131.782 188.921 131.751L200.598 131.668C200.83 131.659 201.061 131.696 201.277 131.778C201.494 131.86 201.692 131.984 201.859 132.145C202.027 132.305 202.16 132.497 202.251 132.71C202.342 132.923 202.389 133.152 202.389 133.384L201.975 139.011C201.975 139.466 201.794 139.903 201.472 140.225C201.15 140.546 200.713 140.727 200.258 140.727L191.575 141.556Z" fill="white"/>
<path d="M201.697 134.867L205.479 130.284C205.557 130.188 205.655 130.11 205.767 130.057C205.879 130.004 206.002 129.977 206.126 129.977C206.341 129.977 206.549 130.061 206.703 130.211C206.858 130.361 206.948 130.566 206.955 130.781L207.299 139.43C207.306 139.605 207.278 139.78 207.216 139.945C207.154 140.109 207.059 140.259 206.937 140.385C206.816 140.512 206.67 140.612 206.508 140.681C206.347 140.75 206.173 140.785 205.997 140.785V140.785C205.657 140.785 205.33 140.653 205.085 140.416L201.689 137.101L201.697 134.867Z" fill="white"/>
<path d="M189.033 144.714L191.998 140.785L196.634 140.271L199.537 143.429C199.66 143.564 199.755 143.723 199.816 143.895C199.876 144.068 199.901 144.251 199.889 144.433C199.876 144.616 199.827 144.794 199.744 144.957C199.66 145.12 199.545 145.264 199.404 145.381V145.381C199.141 145.6 198.805 145.712 198.464 145.694C198.122 145.675 197.8 145.528 197.563 145.282L194.403 141.987L190.945 146.218C190.744 146.463 190.456 146.619 190.142 146.655C189.827 146.691 189.511 146.602 189.261 146.409V146.409C189.007 146.213 188.841 145.926 188.798 145.608C188.755 145.291 188.84 144.969 189.033 144.714Z" fill="white"/>
<path d="M138.083 145.232H137.669C137.67 144.613 137.917 144.019 138.355 143.582C138.794 143.144 139.388 142.899 140.007 142.899H143.714C144.077 142.879 144.418 142.721 144.667 142.458C144.917 142.195 145.056 141.846 145.056 141.483C145.056 141.121 144.917 140.772 144.667 140.509C144.418 140.245 144.077 140.088 143.714 140.068H142.686V139.654H143.731C144.202 139.676 144.645 139.879 144.97 140.219C145.295 140.56 145.477 141.013 145.477 141.483C145.477 141.954 145.295 142.407 144.97 142.747C144.645 143.088 144.202 143.291 143.731 143.313H140.024C139.77 143.311 139.519 143.359 139.284 143.454C139.048 143.55 138.835 143.691 138.654 143.869C138.474 144.047 138.33 144.259 138.233 144.493C138.135 144.727 138.084 144.978 138.083 145.232Z" fill="#2F2E41"/>
</svg>
