<svg width="24" height="24" viewBox="0 0 24 24" fill="none" xmlns="http://www.w3.org/2000/svg">
<path d="M12 0.375C5.37097 0.375 0 5.57812 0 12C0 18.4219 5.37097 23.625 12 23.625C18.629 23.625 24 18.4219 24 12C24 5.57812 18.629 0.375 12 0.375ZM12 4.875C14.3516 4.875 16.2581 6.72188 16.2581 9C16.2581 11.2781 14.3516 13.125 12 13.125C9.64839 13.125 7.74194 11.2781 7.74194 9C7.74194 6.72188 9.64839 4.875 12 4.875ZM12 21C9.15968 21 6.61452 19.7531 4.91129 17.8031C5.82097 16.1437 7.60161 15 9.67742 15C9.79355 15 9.90968 15.0188 10.021 15.0516C10.65 15.2484 11.3081 15.375 12 15.375C12.6919 15.375 13.3548 15.2484 13.979 15.0516C14.0903 15.0188 14.2065 15 14.3226 15C16.3984 15 18.179 16.1437 19.0887 17.8031C17.3855 19.7531 14.8403 21 12 21Z" fill="#FAFAFA"/>
</svg>
